<svg id="svg" version="1.1" xmlns="http://www.w3.org/2000/svg" xmlns:xlink="http://www.w3.org/1999/xlink" width="400" height="400" viewBox="0, 0, 400,400"><g id="svgg"><path id="path0" d="M176.897 121.780 C 170.684 127.997,165.600 133.250,165.600 133.454 C 165.600 134.776,205.530 173.558,208.172 174.803 C 211.153 176.208,217.173 176.706,219.291 175.723 C 223.121 173.946,224.266 173.212,226.154 171.324 C 231.153 166.325,232.745 158.363,229.858 152.800 C 228.813 150.787,190.817 111.931,188.797 110.810 C 188.341 110.557,185.454 113.219,176.897 121.780 M285.453 114.994 C 285.719 115.687,96.753 305.200,95.795 305.200 C 95.572 305.200,92.784 302.590,89.600 299.400 C 86.416 296.210,83.688 293.600,83.538 293.600 C 83.388 293.600,88.651 298.840,95.233 305.245 C 101.815 311.650,107.200 317.050,107.200 317.245 C 107.200 317.440,107.372 317.600,107.583 317.600 C 107.794 317.600,114.637 324.260,122.789 332.400 C 130.942 340.540,137.879 347.200,138.206 347.200 C 138.533 347.200,138.800 347.380,138.800 347.600 C 138.800 347.820,139.160 348.000,139.600 348.000 C 140.040 348.000,140.400 348.180,140.400 348.400 C 140.400 348.620,141.030 348.800,141.800 348.800 C 142.570 348.800,143.200 348.980,143.200 349.200 C 143.200 349.435,144.600 349.600,146.600 349.600 C 148.600 349.600,150.000 349.435,150.000 349.200 C 150.000 348.980,150.630 348.800,151.400 348.800 C 152.170 348.800,152.800 348.620,152.800 348.400 C 152.800 348.180,153.160 348.000,153.600 348.000 C 154.040 348.000,154.400 347.820,154.400 347.600 C 154.400 347.380,154.582 347.200,154.803 347.200 C 155.554 347.200,157.693 345.083,235.092 267.700 C 280.341 222.460,312.705 190.400,313.124 190.400 C 313.527 190.400,318.124 194.689,323.620 200.193 C 328.999 205.579,333.603 209.989,333.851 209.993 C 334.099 209.997,334.542 210.289,334.835 210.642 C 335.401 211.324,337.171 212.182,337.742 212.051 C 337.930 212.007,338.336 212.181,338.643 212.436 C 339.479 213.130,347.528 213.165,347.792 212.476 C 347.918 212.148,348.303 212.042,348.798 212.199 C 349.239 212.339,349.600 212.284,349.600 212.075 C 349.600 211.867,350.152 211.468,350.827 211.189 C 353.137 210.232,358.000 205.489,358.000 204.193 C 358.000 203.867,358.180 203.600,358.400 203.600 C 358.620 203.600,358.800 203.240,358.800 202.800 C 358.800 202.360,358.980 202.000,359.200 202.000 C 359.420 202.000,359.600 201.460,359.600 200.800 C 359.600 200.106,359.811 199.600,360.100 199.600 C 360.461 199.601,360.600 198.654,360.600 196.201 C 360.600 193.749,360.461 192.801,360.100 192.801 C 359.825 192.800,359.600 192.386,359.600 191.880 C 359.600 190.826,358.747 188.808,358.300 188.803 C 358.135 188.801,358.000 188.495,358.000 188.123 C 358.000 187.751,348.595 178.028,337.100 166.517 C 325.605 155.006,316.142 145.321,316.071 144.994 C 316.000 144.667,315.790 144.400,315.606 144.400 C 315.421 144.400,308.502 137.629,300.229 129.353 C 291.957 121.077,285.308 114.615,285.453 114.994 M139.830 158.869 C 133.544 165.160,128.400 170.501,128.400 170.740 C 128.400 171.285,165.585 208.476,167.916 210.262 C 169.507 211.482,170.363 211.939,173.319 213.144 C 174.758 213.731,180.029 213.734,181.481 213.149 C 183.685 212.262,186.211 210.990,186.939 210.400 C 189.494 208.332,191.547 205.721,192.759 203.000 C 193.053 202.340,193.452 201.487,193.647 201.105 C 194.154 200.109,194.083 193.843,193.549 192.519 C 191.835 188.260,191.321 187.684,171.348 167.616 L 151.260 147.432 139.830 158.869 M331.200 159.325 C 331.200 159.394,331.785 159.979,332.500 160.625 L 333.800 161.800 332.625 160.500 C 331.530 159.288,331.200 159.016,331.200 159.325 M350.400 178.525 C 350.400 178.594,350.985 179.179,351.700 179.825 L 353.000 181.000 351.825 179.700 C 350.730 178.488,350.400 178.216,350.400 178.525 M102.279 196.384 L 90.614 208.034 110.607 227.967 C 123.452 240.774,131.194 248.201,132.263 248.740 C 139.409 252.344,146.101 251.277,151.814 245.622 C 153.679 243.776,154.596 242.348,156.169 238.839 C 156.406 238.311,156.598 236.151,156.596 234.039 C 156.588 227.268,157.156 228.002,133.884 204.700 L 113.944 184.734 102.279 196.384 " stroke="none" fill="#84d4e4" fill-rule="evenodd"></path><path id="path1" d="M202.400 39.504 C 202.400 39.683,201.827 39.873,201.127 39.927 C 200.426 39.980,199.661 40.181,199.427 40.373 C 199.192 40.565,198.550 40.785,198.000 40.861 C 197.450 40.937,196.682 41.286,196.293 41.636 C 195.905 41.986,195.110 42.526,194.527 42.836 C 193.193 43.546,190.800 45.845,190.800 46.417 C 190.800 46.653,190.620 46.736,190.400 46.600 C 190.180 46.464,190.000 46.641,190.000 46.993 C 190.000 47.345,189.640 48.020,189.200 48.492 C 188.760 48.964,188.400 49.666,188.400 50.052 C 188.400 50.437,188.220 50.864,188.000 51.000 C 187.780 51.136,187.600 51.676,187.600 52.200 C 187.600 52.724,187.420 53.264,187.200 53.400 C 186.722 53.696,186.652 62.000,187.128 62.000 C 187.308 62.000,187.700 62.900,188.000 64.000 C 188.300 65.100,188.692 66.000,188.872 66.000 C 189.053 66.000,189.200 66.178,189.200 66.395 C 189.200 66.808,190.226 68.173,191.119 68.949 C 191.405 69.197,191.855 69.625,192.119 69.901 C 198.491 76.537,205.972 83.895,206.157 83.710 C 206.291 83.576,206.400 83.755,206.400 84.106 C 206.400 84.458,206.760 84.860,207.200 85.000 C 207.640 85.140,208.000 85.415,208.000 85.611 C 208.000 85.808,208.346 86.291,208.768 86.684 C 209.446 87.316,209.470 87.491,208.968 88.176 C 208.656 88.604,208.400 88.820,208.400 88.658 C 208.400 88.277,206.739 90.013,206.137 91.024 C 205.883 91.451,205.464 91.751,205.207 91.690 C 204.951 91.630,204.840 91.741,204.961 91.937 C 205.082 92.133,204.825 92.615,204.391 93.009 C 203.956 93.402,203.597 93.561,203.594 93.362 C 203.591 93.163,203.362 93.446,203.086 93.992 C 202.810 94.538,202.138 95.210,201.592 95.486 C 201.046 95.762,200.763 95.991,200.962 95.994 C 201.161 95.997,201.002 96.356,200.609 96.791 C 200.215 97.225,199.733 97.482,199.537 97.361 C 199.341 97.240,199.230 97.351,199.290 97.607 C 199.351 97.864,199.051 98.283,198.624 98.537 C 197.727 99.071,195.859 100.800,196.178 100.800 C 196.454 100.800,194.320 102.821,193.233 103.588 C 192.775 103.912,192.397 104.542,192.394 104.988 C 192.389 105.659,192.320 105.696,192.000 105.200 C 191.676 104.698,191.611 104.725,191.606 105.367 C 191.603 105.788,191.481 106.014,191.336 105.869 C 191.190 105.724,190.861 106.009,190.603 106.502 C 190.345 106.996,189.879 107.340,189.567 107.267 C 189.255 107.193,189.135 107.269,189.301 107.434 C 189.466 107.600,189.298 108.071,188.927 108.481 C 188.281 109.195,189.124 110.102,208.668 129.713 C 230.576 151.696,230.645 151.778,231.613 156.800 C 234.075 169.582,219.438 180.901,207.800 175.215 C 204.972 173.833,164.800 134.712,164.800 133.339 C 164.800 133.069,164.575 132.718,164.300 132.559 C 164.025 132.401,163.924 132.410,164.076 132.578 C 164.354 132.888,163.086 134.507,162.630 134.427 C 162.214 134.353,161.273 135.382,161.466 135.700 C 161.565 135.865,161.448 136.000,161.205 136.000 C 160.742 136.000,158.800 137.785,158.800 138.210 C 158.800 138.665,157.698 139.565,157.448 139.314 C 157.311 139.178,157.200 139.377,157.200 139.757 C 157.200 140.137,157.065 140.380,156.900 140.298 C 156.735 140.216,156.201 140.565,155.714 141.074 C 155.227 141.583,154.925 142.000,155.043 142.000 C 155.161 142.000,154.987 142.270,154.657 142.600 C 154.327 142.930,153.946 143.200,153.810 143.200 C 153.385 143.200,151.600 145.142,151.600 145.605 C 151.600 145.848,151.457 145.959,151.283 145.851 C 151.109 145.744,150.940 146.003,150.908 146.428 C 150.876 146.852,151.058 147.200,151.312 147.200 C 152.457 147.200,191.378 186.968,192.733 189.522 C 200.045 203.309,184.252 219.325,170.239 212.333 C 168.151 211.291,164.870 208.192,147.423 190.784 C 136.215 179.601,126.876 170.485,126.669 170.526 C 126.059 170.646,124.535 172.173,124.698 172.500 C 124.780 172.665,124.556 172.800,124.200 172.800 C 123.844 172.800,123.664 172.980,123.800 173.200 C 123.936 173.420,123.848 173.600,123.605 173.600 C 123.040 173.600,121.443 175.190,121.093 176.101 C 120.946 176.485,120.627 176.800,120.384 176.800 C 119.904 176.800,118.700 177.871,118.886 178.132 C 118.949 178.220,118.415 178.891,117.700 179.622 C 116.985 180.354,116.400 180.821,116.400 180.662 C 116.400 180.502,115.974 180.783,115.453 181.286 C 114.932 181.789,114.582 182.335,114.676 182.500 C 114.770 182.665,114.567 182.800,114.224 182.800 C 112.755 182.800,114.616 184.816,134.158 204.400 C 156.320 226.609,155.984 226.212,157.213 231.700 C 158.584 237.826,153.911 246.441,147.586 249.449 C 144.173 251.073,143.430 251.252,140.165 251.240 C 133.218 251.214,132.971 251.023,109.442 227.529 C 91.712 209.825,88.400 206.811,88.400 208.387 C 88.400 208.890,85.690 211.600,85.187 211.600 C 84.974 211.600,84.800 211.881,84.800 212.224 C 84.800 212.567,84.620 212.736,84.400 212.600 C 84.180 212.464,84.000 212.663,84.000 213.043 C 84.000 213.423,83.891 213.624,83.758 213.491 C 83.454 213.188,81.600 215.005,81.600 215.605 C 81.600 215.848,81.420 215.936,81.200 215.800 C 80.980 215.664,80.800 215.839,80.800 216.189 C 80.800 216.539,80.485 216.944,80.100 217.090 C 79.230 217.420,78.348 218.267,78.441 218.686 C 78.479 218.859,78.127 219.196,77.657 219.436 C 77.188 219.675,76.924 219.990,77.069 220.136 C 77.214 220.281,77.115 220.400,76.848 220.400 C 76.217 220.400,74.375 222.242,74.691 222.558 C 74.824 222.691,74.673 222.800,74.355 222.800 C 74.037 222.800,73.512 223.189,73.188 223.664 C 72.418 224.796,69.922 227.200,69.517 227.200 C 69.342 227.200,69.200 227.481,69.200 227.824 C 69.200 228.167,69.020 228.336,68.800 228.200 C 68.580 228.064,68.400 228.263,68.400 228.643 C 68.400 229.023,68.291 229.224,68.158 229.091 C 67.854 228.788,66.000 230.605,66.000 231.205 C 66.000 231.448,65.820 231.536,65.600 231.400 C 65.380 231.264,65.200 231.450,65.200 231.814 C 65.200 232.177,64.878 232.559,64.484 232.662 C 64.091 232.765,63.596 233.228,63.384 233.692 C 63.173 234.155,62.652 234.729,62.227 234.967 C 61.040 235.631,58.823 237.890,59.093 238.160 C 59.225 238.292,59.033 238.400,58.667 238.400 C 58.300 238.400,57.999 238.535,57.997 238.700 C 57.995 238.865,57.108 239.945,56.026 241.100 C 54.944 242.255,53.805 243.695,53.495 244.300 C 53.185 244.905,52.562 246.044,52.111 246.831 C 50.578 249.507,50.203 260.000,51.640 260.000 C 51.838 260.000,52.000 260.461,52.000 261.024 C 52.000 261.604,52.173 261.940,52.400 261.800 C 52.620 261.664,52.800 261.923,52.800 262.376 C 52.800 262.829,52.980 263.200,53.200 263.200 C 53.420 263.200,53.600 263.524,53.600 263.920 C 53.600 264.558,57.677 269.200,58.237 269.200 C 58.543 269.200,59.600 270.286,59.600 270.600 C 59.600 271.063,60.699 271.968,60.952 271.714 C 61.089 271.578,61.200 271.690,61.200 271.962 C 61.200 272.605,62.231 273.636,62.552 273.314 C 62.689 273.178,62.800 273.397,62.800 273.800 C 62.800 274.203,62.914 274.420,63.053 274.281 C 63.334 274.000,65.600 276.278,65.600 276.842 C 65.600 277.039,65.900 277.200,66.267 277.200 C 66.633 277.200,66.822 277.311,66.686 277.448 C 66.432 277.701,67.337 278.800,67.800 278.800 C 68.196 278.800,69.015 279.722,69.310 280.500 C 69.456 280.885,69.881 281.200,70.254 281.200 C 70.628 281.200,70.839 281.294,70.724 281.410 C 70.500 281.633,73.516 284.800,73.952 284.800 C 74.094 284.800,74.395 285.205,74.620 285.700 C 74.845 286.195,75.248 286.555,75.515 286.500 C 75.782 286.445,76.000 286.681,76.000 287.024 C 76.000 287.367,76.180 287.536,76.400 287.400 C 76.620 287.264,76.800 287.356,76.800 287.605 C 76.800 288.215,77.842 289.224,78.152 288.914 C 78.289 288.778,78.400 288.967,78.400 289.333 C 78.400 289.700,78.572 290.000,78.782 290.000 C 79.278 290.000,81.200 291.922,81.200 292.418 C 81.200 292.628,81.481 292.800,81.824 292.800 C 82.167 292.800,82.346 292.963,82.223 293.163 C 82.100 293.362,82.376 293.427,82.838 293.306 C 83.511 293.130,84.852 294.260,89.641 299.041 L 95.605 304.995 190.402 210.198 C 242.541 158.059,285.198 115.220,285.195 115.000 C 285.192 114.780,278.622 108.038,270.595 100.017 C 262.568 91.997,256.000 85.207,256.000 84.928 C 256.000 84.209,253.431 81.402,247.205 75.319 C 244.232 72.415,241.080 69.308,240.200 68.414 C 239.320 67.521,235.630 63.830,232.000 60.213 C 228.370 56.596,224.905 53.134,224.300 52.518 C 223.695 51.903,221.343 49.510,219.073 47.200 C 214.867 42.919,213.200 41.405,213.200 41.866 C 213.200 42.008,212.885 41.871,212.500 41.562 C 211.172 40.496,210.007 40.000,208.829 40.000 C 208.179 40.000,207.560 39.858,207.453 39.685 C 207.192 39.263,202.400 39.091,202.400 39.504 " stroke="none" fill="#c3ebf3" fill-rule="evenodd"></path><path id="path2" d="M300.000 0.800 C 300.000 1.020,299.460 1.200,298.800 1.200 C 298.140 1.200,297.600 1.380,297.600 1.600 C 297.600 1.820,297.240 2.000,296.800 2.000 C 296.360 2.000,296.000 2.180,296.000 2.400 C 296.000 2.620,295.727 2.800,295.393 2.800 C 293.534 2.800,287.219 11.035,287.205 13.476 C 287.202 13.958,287.020 14.464,286.800 14.600 C 286.580 14.736,286.400 16.356,286.400 18.200 C 286.400 20.044,286.580 21.664,286.800 21.800 C 287.020 21.936,287.200 22.577,287.200 23.224 C 287.200 23.871,287.338 24.400,287.506 24.400 C 287.674 24.400,288.127 25.128,288.513 26.019 C 288.945 27.016,291.404 29.873,294.925 33.467 L 300.637 39.298 299.418 40.586 C 298.748 41.294,298.131 41.819,298.047 41.751 C 297.963 41.683,297.366 42.207,296.720 42.914 C 294.225 45.647,291.629 48.267,289.859 49.840 C 288.843 50.742,288.065 51.552,288.129 51.640 C 288.193 51.728,286.931 53.085,285.323 54.655 C 283.715 56.225,282.400 57.412,282.400 57.294 C 282.400 57.175,281.635 57.939,280.700 58.992 C 279.065 60.832,276.488 63.386,273.658 65.973 C 272.919 66.648,272.409 67.200,272.523 67.200 C 272.638 67.200,271.622 68.334,270.266 69.719 C 268.910 71.104,267.665 72.174,267.500 72.095 C 267.335 72.017,267.200 72.263,267.200 72.643 C 267.200 73.023,267.095 73.228,266.967 73.100 C 266.839 72.972,265.534 74.143,264.067 75.702 C 262.600 77.262,260.882 79.001,260.248 79.569 C 257.587 81.951,256.731 82.800,256.986 82.800 C 257.135 82.800,256.974 83.083,256.629 83.429 C 256.283 83.774,256.007 84.179,256.015 84.329 C 256.048 84.902,315.829 144.828,316.355 144.814 C 316.660 144.806,326.940 134.758,339.200 122.485 L 361.491 100.170 364.897 103.585 C 370.509 109.213,373.595 112.000,374.215 112.000 C 374.537 112.000,374.800 112.180,374.800 112.400 C 374.800 112.620,375.160 112.800,375.600 112.800 C 376.040 112.800,376.400 112.960,376.400 113.156 C 376.400 113.696,379.029 114.093,382.600 114.093 C 386.171 114.093,388.800 113.696,388.800 113.156 C 388.800 112.960,389.216 112.800,389.725 112.800 C 390.233 112.800,391.036 112.440,391.508 112.000 C 391.980 111.560,392.467 111.200,392.591 111.200 C 393.109 111.200,398.000 105.963,398.000 105.407 C 398.000 105.073,398.180 104.800,398.400 104.800 C 398.620 104.800,398.800 104.455,398.800 104.033 C 398.800 103.612,399.025 103.192,399.300 103.100 C 399.958 102.881,400.023 89.718,399.368 89.285 C 399.130 89.128,398.681 88.415,398.370 87.700 C 398.059 86.985,397.669 86.400,397.502 86.400 C 397.336 86.400,397.200 86.119,397.200 85.776 C 397.200 85.433,397.065 85.230,396.900 85.324 C 396.735 85.418,395.610 84.429,394.400 83.125 C 393.190 81.822,389.590 78.165,386.400 74.998 C 383.210 71.831,379.723 68.353,378.652 67.269 C 377.580 66.184,374.093 62.687,370.904 59.496 C 367.714 56.306,364.361 52.950,363.452 52.038 C 362.543 51.127,359.190 47.779,356.000 44.600 C 352.810 41.420,349.300 37.910,348.200 36.801 C 347.100 35.691,343.590 32.181,340.400 29.001 C 333.425 22.047,332.175 20.789,325.100 13.609 C 322.075 10.539,319.600 8.120,319.600 8.233 C 319.600 8.346,318.385 7.215,316.900 5.720 C 315.415 4.224,313.660 2.730,313.000 2.401 C 312.340 2.071,311.710 1.710,311.600 1.599 C 310.541 0.525,300.000 -0.201,300.000 0.800 M43.157 332.344 C 21.904 353.626,4.281 371.479,3.995 372.019 C 3.709 372.559,3.143 373.291,2.737 373.647 C 2.332 374.003,2.000 374.577,2.000 374.923 C 2.000 375.270,1.820 375.664,1.600 375.800 C 1.380 375.936,1.200 376.487,1.200 377.024 C 1.200 377.561,1.020 378.000,0.800 378.000 C 0.554 378.000,0.400 380.000,0.400 383.200 C 0.400 386.400,0.554 388.400,0.800 388.400 C 1.020 388.400,1.200 388.940,1.200 389.600 C 1.200 390.260,1.380 390.800,1.600 390.800 C 1.820 390.800,2.000 391.043,2.000 391.341 C 2.000 391.638,2.495 392.406,3.100 393.048 C 3.705 393.689,4.455 394.706,4.768 395.307 C 5.080 395.908,5.576 396.400,5.871 396.400 C 6.166 396.400,6.972 396.940,7.663 397.600 C 8.354 398.260,9.147 398.800,9.426 398.800 C 9.705 398.800,10.008 399.025,10.100 399.300 C 10.226 399.676,12.089 399.800,17.600 399.800 C 23.111 399.800,24.975 399.676,25.100 399.300 C 25.192 399.025,25.572 398.800,25.945 398.800 C 26.318 398.800,26.883 398.440,27.200 398.000 C 27.517 397.560,28.021 397.200,28.320 397.200 C 29.187 397.200,107.200 318.972,107.200 318.103 C 107.200 317.124,83.448 293.591,82.494 293.625 C 82.112 293.639,64.411 311.063,43.157 332.344 M110.783 322.100 C 112.441 323.866,112.800 324.184,112.800 323.883 C 112.800 323.819,111.945 322.964,110.900 321.983 L 109.000 320.200 110.783 322.100 " stroke="none" fill="#43a7df" fill-rule="evenodd"></path><path id="path3" d="M256.047 85.106 C 256.196 85.586,276.884 106.477,282.676 111.995 C 284.174 113.423,278.830 107.940,270.800 99.811 C 262.770 91.682,256.130 84.934,256.045 84.816 C 255.960 84.697,255.961 84.828,256.047 85.106 M182.300 114.838 C 178.835 118.365,176.000 121.430,176.000 121.649 C 176.000 121.868,175.820 121.936,175.600 121.800 C 175.380 121.664,175.200 121.833,175.200 122.176 C 175.200 122.519,174.995 122.800,174.743 122.800 C 174.106 122.800,168.800 128.052,168.800 128.684 C 168.800 128.968,168.519 129.200,168.176 129.200 C 167.833 129.200,167.664 129.380,167.800 129.600 C 167.936 129.820,167.857 130.000,167.624 130.000 C 167.391 130.000,166.436 130.752,165.500 131.671 C 164.565 132.590,164.025 133.209,164.300 133.047 C 164.598 132.872,164.800 132.970,164.800 133.292 C 164.800 134.697,204.911 173.804,207.800 175.215 C 219.438 180.901,234.075 169.582,231.613 156.800 C 230.645 151.778,230.574 151.694,208.694 129.740 C 196.868 117.872,188.418 109.094,188.576 108.840 C 189.150 107.911,188.409 108.618,182.300 114.838 M209.058 130.872 C 232.042 153.938,231.000 152.573,231.000 159.600 C 231.000 165.045,229.990 167.488,226.154 171.324 C 224.266 173.212,223.121 173.946,219.291 175.723 C 217.173 176.706,211.153 176.208,208.172 174.803 C 205.530 173.558,165.600 134.776,165.600 133.454 C 165.600 132.544,188.203 110.480,188.797 110.810 C 189.129 110.994,198.246 120.022,209.058 130.872 M190.503 209.998 L 95.606 304.996 89.658 299.058 C 85.231 294.638,83.517 293.170,82.955 293.314 C 82.254 293.493,82.258 293.511,83.005 293.554 C 83.472 293.580,86.245 296.039,89.600 299.400 C 92.784 302.590,95.572 305.200,95.795 305.200 C 96.387 305.200,285.728 115.764,285.550 115.350 C 285.467 115.157,242.696 157.749,190.503 209.998 M316.067 145.190 C 316.140 145.405,325.605 155.000,337.100 166.513 C 348.595 178.026,358.000 187.751,358.000 188.123 C 358.000 188.495,358.135 188.801,358.300 188.803 C 358.747 188.808,359.600 190.826,359.600 191.880 C 359.600 192.459,359.839 192.800,360.243 192.800 C 362.349 192.800,358.952 187.010,353.950 182.074 C 351.569 179.723,349.391 177.568,349.110 177.284 C 323.630 151.532,315.553 143.687,316.067 145.190 M147.700 149.397 C 146.105 150.991,144.800 152.499,144.800 152.748 C 144.800 152.996,144.560 153.200,144.268 153.200 C 143.620 153.200,137.171 159.838,137.500 160.167 C 137.628 160.295,137.423 160.400,137.043 160.400 C 136.663 160.400,136.464 160.580,136.600 160.800 C 136.736 161.020,136.648 161.200,136.404 161.200 C 135.826 161.200,130.000 167.026,130.000 167.604 C 130.000 167.848,129.820 167.936,129.600 167.800 C 129.380 167.664,129.200 167.833,129.200 168.176 C 129.200 168.519,128.958 168.800,128.662 168.800 C 128.366 168.800,127.832 169.123,127.475 169.518 C 125.822 171.344,170.064 213.703,173.489 213.573 C 174.011 213.553,173.935 213.433,173.200 213.119 C 172.650 212.884,171.622 212.441,170.916 212.134 C 170.210 211.828,168.860 210.986,167.916 210.262 C 165.585 208.476,128.400 171.285,128.400 170.740 C 128.400 170.501,133.544 165.160,139.830 158.869 L 151.260 147.432 171.348 167.616 C 191.321 187.684,191.835 188.260,193.549 192.519 C 194.083 193.843,194.154 200.109,193.647 201.105 C 193.452 201.487,193.053 202.340,192.759 203.000 C 191.547 205.721,189.494 208.332,186.939 210.400 C 186.248 210.959,183.933 212.141,181.600 213.124 C 180.846 213.442,180.779 213.553,181.325 213.573 C 184.150 213.678,190.957 208.055,192.937 203.980 C 195.198 199.327,195.123 194.028,192.733 189.522 C 191.384 186.980,152.459 147.200,151.320 147.200 C 151.071 147.200,150.807 147.042,150.733 146.849 C 150.660 146.657,149.295 147.803,147.700 149.397 M101.480 195.675 L 89.561 207.679 109.280 227.368 C 132.990 251.041,133.214 251.214,140.165 251.240 C 143.430 251.252,144.173 251.073,147.586 249.449 C 153.911 246.441,158.584 237.826,157.213 231.700 C 155.983 226.206,156.335 226.622,134.057 204.335 L 113.400 183.671 101.480 195.675 M155.208 227.433 C 156.696 230.409,157.211 236.517,156.169 238.839 C 154.596 242.348,153.679 243.776,151.814 245.622 C 146.101 251.277,139.409 252.344,132.263 248.740 C 131.194 248.201,123.452 240.774,110.607 227.967 L 90.614 208.034 102.279 196.384 L 113.944 184.734 133.884 204.700 C 151.968 222.807,153.953 224.923,155.208 227.433 M234.988 267.735 C 157.732 345.043,155.556 347.200,154.803 347.200 C 154.582 347.200,154.400 347.380,154.400 347.600 C 154.400 347.820,154.040 348.000,153.600 348.000 C 153.160 348.000,152.800 348.180,152.800 348.400 C 152.800 349.748,157.653 346.824,160.354 343.848 C 163.066 340.861,163.512 340.445,163.747 340.681 C 163.886 340.820,164.000 340.603,164.000 340.200 C 164.000 339.797,164.097 339.564,164.215 339.682 C 164.508 339.975,169.922 334.678,169.716 334.300 C 169.626 334.135,169.722 334.000,169.930 334.000 C 170.268 334.000,191.679 312.645,284.198 220.028 C 300.037 204.173,313.124 191.200,313.279 191.200 C 313.435 191.200,314.425 192.082,315.481 193.161 C 316.536 194.239,319.219 196.984,321.442 199.261 C 327.852 205.826,334.027 211.600,334.638 211.600 C 334.947 211.600,335.200 211.780,335.200 212.000 C 335.200 212.220,335.560 212.400,336.000 212.400 C 336.440 212.400,336.800 212.580,336.800 212.800 C 336.800 213.020,337.362 213.200,338.049 213.200 C 339.119 213.200,339.226 213.113,338.796 212.595 C 338.519 212.262,338.092 212.021,337.847 212.059 C 337.154 212.167,335.425 211.353,334.835 210.642 C 334.542 210.289,334.099 209.997,333.851 209.993 C 333.603 209.989,328.999 205.579,323.620 200.193 C 316.922 193.485,313.582 190.411,313.020 190.435 C 312.486 190.457,285.252 217.436,234.988 267.735 M360.400 196.000 C 360.400 197.540,360.558 198.800,360.750 198.800 C 361.182 198.800,361.552 196.947,361.388 195.600 C 361.321 195.050,361.252 194.285,361.233 193.900 C 361.132 191.772,360.400 193.617,360.400 196.000 M359.600 200.800 C 359.600 201.460,359.420 202.000,359.200 202.000 C 358.980 202.000,358.800 202.360,358.800 202.800 C 358.800 203.240,358.620 203.600,358.400 203.600 C 358.180 203.600,358.000 203.867,358.000 204.193 C 358.000 204.830,356.515 206.671,354.641 208.357 C 354.003 208.931,353.185 209.678,352.824 210.017 C 352.462 210.357,351.588 210.873,350.883 211.166 C 350.177 211.458,349.600 211.853,349.600 212.044 C 349.600 212.235,349.215 212.348,348.744 212.295 C 348.273 212.243,347.808 212.425,347.711 212.700 C 347.598 213.017,347.912 213.200,348.567 213.200 C 349.135 213.200,349.600 213.020,349.600 212.800 C 349.600 212.580,349.960 212.400,350.400 212.400 C 350.840 212.400,351.200 212.220,351.200 212.000 C 351.200 211.780,351.560 211.600,352.000 211.600 C 352.440 211.600,352.800 211.462,352.800 211.294 C 352.800 211.126,353.520 210.544,354.400 210.000 C 355.280 209.456,356.000 208.919,356.000 208.806 C 356.001 208.693,356.471 208.060,357.045 207.400 C 359.267 204.847,361.389 199.600,360.200 199.600 C 359.800 199.600,359.600 200.000,359.600 200.800 M339.597 213.404 C 339.164 213.925,339.609 214.000,343.151 214.000 C 345.389 214.000,347.200 213.833,347.200 213.627 C 347.200 212.675,340.368 212.475,339.597 213.404 M176.200 213.987 C 177.300 214.142,178.650 214.133,179.200 213.968 C 179.842 213.776,179.126 213.676,177.200 213.688 C 174.382 213.706,174.321 213.724,176.200 213.987 M107.602 318.100 C 107.603 318.375,108.998 319.989,110.702 321.687 C 112.406 323.386,117.040 328.036,121.000 332.022 C 127.191 338.254,129.523 340.560,135.436 346.300 C 135.946 346.795,136.507 347.204,136.682 347.209 C 136.857 347.214,137.450 347.570,138.000 348.000 C 139.069 348.837,140.400 349.058,140.400 348.400 C 140.400 348.180,140.040 348.000,139.600 348.000 C 139.160 348.000,138.800 347.820,138.800 347.600 C 138.800 347.380,138.533 347.200,138.206 347.200 C 137.879 347.200,130.942 340.540,122.789 332.400 C 107.654 317.289,107.599 317.236,107.602 318.100 M140.800 349.200 C 140.800 349.420,141.340 349.600,142.000 349.600 C 142.660 349.600,143.200 349.420,143.200 349.200 C 143.200 348.980,142.660 348.800,142.000 348.800 C 141.340 348.800,140.800 348.980,140.800 349.200 M150.000 349.200 C 150.000 349.420,150.540 349.600,151.200 349.600 C 151.860 349.600,152.400 349.420,152.400 349.200 C 152.400 348.980,151.860 348.800,151.200 348.800 C 150.540 348.800,150.000 348.980,150.000 349.200 M144.400 350.000 C 145.190 350.511,148.284 350.511,148.600 350.000 C 148.755 349.749,147.906 349.602,146.324 349.606 C 144.547 349.610,143.978 349.727,144.400 350.000 " stroke="none" fill="#92d4e4" fill-rule="evenodd"></path><path id="path4" d="M222.800 50.764 C 222.800 51.280,226.367 54.800,226.890 54.800 C 227.080 54.800,226.733 54.308,226.118 53.708 C 225.503 53.107,224.505 52.098,223.900 51.465 C 223.295 50.833,222.800 50.517,222.800 50.764 M238.400 66.396 C 238.400 66.889,242.833 71.200,243.341 71.200 C 243.530 71.200,243.166 70.705,242.532 70.100 C 241.898 69.495,240.709 68.319,239.890 67.487 C 239.070 66.654,238.400 66.163,238.400 66.396 M254.000 81.945 C 254.000 82.518,255.543 84.086,255.962 83.940 C 256.181 83.863,255.830 83.308,255.180 82.706 C 254.531 82.105,254.000 81.762,254.000 81.945 M271.000 100.000 C 279.138 108.140,285.886 114.800,285.996 114.800 C 286.106 114.800,279.538 108.140,271.400 100.000 C 263.262 91.860,256.514 85.200,256.404 85.200 C 256.294 85.200,262.862 91.860,271.000 100.000 M310.200 194.000 C 309.568 194.660,309.219 195.190,309.425 195.178 C 309.778 195.157,311.839 192.800,311.505 192.800 C 311.420 192.800,310.832 193.340,310.200 194.000 M301.371 202.903 L 300.200 204.197 301.400 203.199 C 302.060 202.649,302.675 202.155,302.767 202.100 C 302.858 202.045,302.845 201.912,302.738 201.804 C 302.630 201.696,302.015 202.191,301.371 202.903 M285.970 218.268 L 285.000 219.336 286.087 218.568 C 286.686 218.146,287.181 217.665,287.187 217.500 C 287.208 217.007,286.989 217.146,285.970 218.268 M58.602 270.002 C 59.002 270.444,59.411 270.722,59.512 270.621 C 59.728 270.405,58.588 269.200,58.167 269.200 C 58.007 269.200,58.203 269.561,58.602 270.002 M63.200 274.283 C 63.200 274.485,63.740 275.168,64.400 275.800 C 65.060 276.432,65.600 276.845,65.600 276.717 C 65.600 276.589,65.060 275.907,64.400 275.200 C 63.740 274.493,63.200 274.081,63.200 274.283 M68.202 279.602 C 68.602 280.044,69.011 280.322,69.112 280.221 C 69.328 280.005,68.188 278.800,67.767 278.800 C 67.607 278.800,67.803 279.161,68.202 279.602 M78.800 290.125 C 78.800 290.194,79.340 290.768,80.000 291.400 C 81.455 292.794,81.617 292.454,80.182 291.018 C 79.252 290.088,78.800 289.796,78.800 290.125 M101.200 311.400 C 104.384 314.590,107.080 317.200,107.190 317.200 C 107.300 317.200,104.784 314.590,101.600 311.400 C 98.416 308.210,95.720 305.600,95.610 305.600 C 95.500 305.600,98.016 308.210,101.200 311.400 M107.202 318.129 C 107.201 318.529,107.470 319.127,107.800 319.457 C 108.557 320.214,108.557 319.993,107.802 318.546 C 107.376 317.727,107.204 317.608,107.202 318.129 M122.886 334.546 C 123.389 335.067,123.874 335.428,123.964 335.349 C 124.197 335.145,122.748 333.600,122.324 333.600 C 122.130 333.600,122.383 334.026,122.886 334.546 " stroke="none" fill="#70d8e8" fill-rule="evenodd"></path></g></svg>